<svg width="88" height="81" viewBox="0 0 88 81" fill="none" xmlns="http://www.w3.org/2000/svg">
<path d="M43.5721 71.5221C43.316 70.5809 43.0092 69.6511 42.6701 68.7376C42.1926 67.4503 41.1129 66.6867 39.7518 66.7374C39.145 66.7605 38.9259 66.5829 38.7575 66.0084C37.7055 62.398 36.6027 58.8014 35.5277 55.1979C35.1932 54.0836 34.7595 53.0178 33.9013 52.2034C30.9991 49.4535 28.1015 46.7013 25.1624 43.9906C23.8105 42.7425 22.1841 42.5141 20.4077 42.9248C19.7548 43.077 19.1827 43.9675 18.5898 43.5153C18.08 43.1255 17.9208 42.2788 17.607 41.6328C17.5932 41.6052 17.584 41.5798 17.5724 41.5521C14.7002 35.5724 11.8234 29.595 8.95817 23.613C8.09535 21.8112 6.69501 20.8492 4.93709 20.7523C1.58274 20.7131 -0.701171 23.643 0.196245 26.9627C2.55629 35.6947 4.8056 44.4543 7.07797 53.2093C7.84159 56.1484 9.26269 58.6814 11.4589 60.7923C13.1984 62.4649 14.871 64.2113 16.6266 65.8723C18.3683 67.5195 19.5426 69.4712 20.1401 71.792C20.2578 72.2557 20.2578 72.5602 19.8056 72.8694C18.6406 73.6676 18.366 74.8372 18.6775 76.1453C18.8966 77.0658 19.1873 77.9701 19.4988 78.8652C20.0271 80.3809 21.5543 81.2322 23.1392 80.9138C23.589 80.8239 24.0274 80.6785 24.4657 80.547C30.0186 78.8768 35.5715 77.2065 41.1221 75.5293C43.0738 74.9387 44.0658 73.3331 43.5721 71.5221ZM18.4606 63.8583C16.6035 62.1396 14.8548 60.3033 13.06 58.52C11.4958 56.9627 10.4162 55.1195 9.85789 52.9878C7.51169 44.0436 5.17933 35.0949 2.83543 26.1484C2.61166 25.2971 2.70624 24.5427 3.38911 23.9475C3.95432 23.4561 4.61642 23.3362 5.32467 23.6038C5.8645 23.8068 6.22208 24.2082 6.46662 24.7204C9.92018 31.9204 13.3714 39.1205 16.825 46.3206C16.9542 46.5882 16.9772 46.8512 16.9496 47.1534C16.7996 48.7383 17.3002 50.1156 18.4491 51.2114C20.6338 53.2969 22.8416 55.3571 25.054 57.4149C25.7715 58.0816 26.5535 58.0793 27.1072 57.4657C27.6401 56.8797 27.5732 56.0538 26.8857 55.4055C24.7541 53.3892 22.597 51.4006 20.4723 49.3774C19.2981 48.2631 19.3926 46.6574 20.6315 45.8223C21.0006 45.5709 21.4066 45.4555 21.8011 45.474C22.4955 45.4509 23.0238 45.7093 23.4806 46.1407C26.2282 48.7199 28.9735 51.3014 31.7189 53.8829C32.2564 54.3881 32.6024 54.9972 32.8147 55.7054C33.9312 59.4174 35.0547 63.127 36.2036 66.8297C36.379 67.3972 36.2428 67.6025 35.6776 67.7686C31.6842 68.9475 27.7001 70.1541 23.7205 71.3791C23.1207 71.5659 22.807 71.559 22.6501 70.8369C22.0457 68.0455 20.5484 65.7916 18.4606 63.8583ZM40.1117 72.9594C35.0824 74.4451 30.0624 75.97 25.0401 77.4833C24.2165 77.7325 23.393 77.9817 22.6686 78.1985C22.191 78.2746 22.0549 78.0255 21.9649 77.7371C21.7827 77.1627 21.6558 76.5675 21.4274 76.0138C21.1113 75.2456 21.3236 74.8995 22.131 74.6688C24.9686 73.8568 27.7878 72.9755 30.6138 72.1242C33.4145 71.2799 36.2221 70.4609 39.0089 69.5819C39.7471 69.3489 40.1439 69.4435 40.3031 70.244C40.4023 70.7493 40.5454 71.2522 40.7438 71.7274C41.0368 72.4241 40.8476 72.7425 40.1117 72.9594Z" fill="white"/>
<path d="M84.5625 20.9091C82.5278 20.3462 80.3592 21.2298 79.3165 23.0961C78.8412 23.9474 78.4467 24.8448 78.0223 25.7238C75.2331 31.5212 72.4463 37.321 69.6456 43.1115C69.5118 43.386 69.5395 43.9605 68.8589 43.5521C66.6004 42.2025 64.4064 42.484 62.4778 44.2904C59.8732 46.7288 57.2894 49.1858 54.6687 51.6058C53.5821 52.6116 52.8554 53.7951 52.4378 55.2185C51.3766 58.8267 50.2554 62.4186 49.1942 66.0267C49.035 66.562 48.8435 66.7258 48.2645 66.6935C46.8711 66.6173 45.7037 67.4617 45.2446 68.8113C44.9401 69.7087 44.6748 70.6199 44.4303 71.5358C43.992 73.183 44.8063 74.8348 46.4281 75.3331C52.4909 77.2018 58.5675 79.0335 64.651 80.8353C66.3858 81.3474 67.9361 80.4477 68.5313 78.7175C68.7851 77.9838 68.9835 77.2341 69.2119 76.4935C69.6917 74.9525 69.3711 73.6513 68.0376 72.6778C67.8 72.5048 67.6916 72.3756 67.7769 72.0549C68.3168 70.0017 69.0642 68.08 70.6537 66.5597C72.6885 64.608 74.6564 62.5893 76.6634 60.61C78.6982 58.6052 80.0755 56.2313 80.7952 53.4629C82.9084 45.347 85.0424 37.2402 87.1579 29.1266C87.4832 27.8785 87.9169 26.6535 88 25.5992C87.9953 23.2737 86.6019 21.4743 84.5625 20.9091ZM66.5243 76.076C65.8299 78.3668 65.8322 78.3645 63.5552 77.6747C58.3645 76.1036 53.1784 74.5187 47.9761 72.9892C47.1156 72.7354 46.9264 72.3756 47.2586 71.5843C47.4778 71.0583 47.6162 70.4954 47.7662 69.9417C47.8515 69.6303 47.9784 69.4088 48.4098 69.4319C48.6751 69.5126 49.0027 69.6141 49.3326 69.7133C54.7979 71.3651 60.2631 73.0169 65.7283 74.6687C66.8472 75.0078 66.8449 75.0101 66.5243 76.076ZM85.1808 26.0144C84.6318 28.1853 84.055 30.3493 83.4875 32.5155C81.7203 39.2634 79.9394 46.0091 78.186 52.7616C77.5908 55.0455 76.4743 57.0088 74.7971 58.6652C72.9146 60.5223 71.0782 62.4302 69.1542 64.2458C67.2994 65.9944 66.049 68.0592 65.4077 70.5184C65.1147 71.6396 65.0824 71.635 63.9381 71.289C60.0901 70.1239 56.249 68.9428 52.394 67.8077C51.7688 67.6255 51.5865 67.4455 51.7965 66.7742C52.9269 63.1569 54.0158 59.528 55.0978 55.8968C55.3608 55.0155 55.8175 54.3027 56.4981 53.6752C59.0935 51.2736 61.6611 48.8397 64.2357 46.4128C64.681 45.9929 65.1354 45.6076 65.7676 45.5131C66.7503 45.3654 67.6662 45.7991 68.1045 46.6181C68.5544 47.4648 68.4321 48.5029 67.6916 49.2434C66.6765 50.2608 65.6084 51.2251 64.561 52.2102C63.4306 53.2738 62.2886 54.3257 61.1628 55.3962C60.4269 56.0952 60.3461 56.9026 60.9183 57.514C61.4904 58.123 62.2817 58.0907 63.043 57.3825C65.2093 55.3616 67.3663 53.3337 69.521 51.299C70.6284 50.2516 71.1382 48.9528 71.0898 47.3702C70.9375 46.8557 71.1751 46.3713 71.4151 45.8706C74.7279 38.9889 78.0292 32.1003 81.3351 25.2139C81.4227 25.034 81.5104 24.8517 81.6027 24.6741C82.1356 23.6682 83.0792 23.2576 84.0412 23.6083C84.9801 23.9497 85.46 24.914 85.1808 26.0144Z" fill="white"/>
<path d="M65.4746 32.1673C63.5275 26.7205 59.9448 22.6856 54.814 20.0348C54.235 19.7372 54.1427 19.5781 54.5626 19.0175C56.4866 16.4498 57.1579 13.5245 56.7196 10.3778C56.0575 5.62774 52.3756 1.6828 47.7478 0.646966C42.9008 -0.439623 37.98 1.54208 35.2739 5.66927C32.5955 9.75724 32.7247 15.0748 35.6476 19.0221C36.0652 19.585 35.9775 19.7349 35.3939 20.0348C30.1939 22.7063 26.595 26.8035 24.6779 32.3265C23.2038 36.5667 26.129 40.627 30.6276 40.657C32.3833 40.6685 34.1389 40.657 35.8922 40.6616C36.2013 40.6616 36.4851 40.6316 36.7481 40.9246C38.9928 43.4346 41.4635 45.7254 43.819 48.127C44.7718 49.0982 45.4246 49.089 46.3889 48.1339C48.1261 46.4106 49.8517 44.6803 51.5843 42.9524C52.3502 42.1888 52.9961 41.1253 53.9189 40.7492C54.8579 40.3686 56.0714 40.6662 57.1649 40.6662V40.6593C57.9423 40.6593 58.7175 40.6616 59.4949 40.6593C64.1481 40.6362 67.0411 36.5528 65.4746 32.1673ZM45.0855 3.06699C50.034 3.04623 54.1104 7.11344 54.1496 12.115C54.1889 16.9942 50.0801 21.1145 45.1524 21.1422C40.2339 21.1676 36.0998 17.0796 36.0906 12.1819C36.0837 7.18726 40.1278 3.08775 45.0855 3.06699ZM51.0352 39.6373C49.1942 41.4967 47.3302 43.3331 45.4892 45.1948C45.2008 45.4878 45.0347 45.4878 44.7418 45.1925C42.9077 43.3238 41.0298 41.5013 39.2142 39.6165C37.92 38.2738 37.9892 36.2691 39.2881 34.9564C40.4946 33.7337 42.4648 33.6968 43.8213 34.8734C44.9125 35.8215 45.3116 35.8169 46.3959 34.8987C47.5194 33.9483 48.7905 33.8075 50.1032 34.3935C51.3605 34.9564 51.8888 36.0338 51.9442 37.1803C51.9326 38.2462 51.6466 39.019 51.0352 39.6373ZM59.7418 37.9163C58.2768 37.9416 56.8073 37.9117 55.3424 37.9324C54.8971 37.937 54.7033 37.8655 54.6802 37.3349C54.4611 32.4395 49.9348 29.8718 45.5654 32.1627C45.2308 32.338 45.0232 32.2942 44.7164 32.128C40.52 29.8649 35.8299 32.4949 35.5715 37.2772C35.5415 37.8263 35.38 37.9578 34.8748 37.9324C34.1273 37.8978 33.3776 37.9232 32.6301 37.9232V37.9163C31.8826 37.9163 31.1352 37.9393 30.3877 37.914C28.1061 37.8355 26.4751 35.6831 27.181 33.5284C28.9758 28.0562 32.5794 24.2013 37.8393 21.8758C38.1969 21.7189 38.4575 21.7766 38.7874 21.975C42.9931 24.4965 47.2172 24.4873 51.4274 21.9889C51.8265 21.7535 52.131 21.7466 52.5347 21.9266C57.6632 24.222 61.1859 28.0032 63.0154 33.3185C63.8205 35.6577 62.2195 37.8747 59.7418 37.9163Z" fill="white"/>
</svg>
