<svg width="81" height="80" viewBox="0 0 81 80" fill="none" xmlns="http://www.w3.org/2000/svg">
<path d="M26.8175 53.4973C23.871 51.1 20.9956 48.6193 18.4564 45.7647C17.3956 44.5703 15.9234 44.1944 14.3155 44.4784C13.1628 44.683 12.2941 45.3429 11.5048 46.2325C11.3147 45.5935 11.3252 45.0255 11.3294 44.4617C11.3502 40.4795 11.3837 36.4952 11.392 32.5131C11.3941 31.5003 11.3628 30.4812 11.2667 29.4726C11.1122 27.848 10.7154 26.2819 9.67342 24.9747C8.48315 23.4837 6.92328 22.8364 5.03973 23.3C3.16244 23.7614 1.84271 24.9162 1.32484 26.8186C1.15152 27.4596 1.17657 28.1613 1.15778 28.8357C0.986549 34.7432 0.825759 40.6486 0.654527 46.5561C0.648263 46.7691 0.771465 47.0322 0.5 47.1889C0.5 49.4796 0.5 51.7724 0.5 54.0632C0.600233 54.1676 0.58144 54.3054 0.585617 54.4307C0.664968 56.4166 1.67148 57.9117 3.03924 59.2628C6.27385 62.4577 9.46878 65.6944 12.6992 68.8956C13.2964 69.4866 13.5763 70.1214 13.5658 70.965C13.5345 73.356 13.5408 75.747 13.5616 78.1358C13.5721 79.4138 13.7141 79.5934 14.8772 80.0006C19.6696 80.0006 24.4599 80.0006 29.2523 80.0006C29.8433 79.6707 30.1586 79.1966 30.1586 78.4908C30.1523 72.6585 30.1899 66.8283 30.1502 60.996C30.1231 58.0454 29.2335 55.4644 26.8175 53.4973ZM27.6507 67.9162C27.6507 71.4432 27.636 74.0973 27.6611 76.7535C27.6653 77.3006 27.5671 77.5219 26.9469 77.5157C23.6935 77.4822 20.438 77.4822 17.1846 77.5157C16.5707 77.5219 16.4559 77.3152 16.4621 76.7597C16.4893 74.4168 16.4517 72.0738 16.4872 69.7309C16.4976 68.9979 16.2721 68.455 15.7501 67.9392C12.2899 64.5146 8.882 61.0377 5.40307 57.6319C3.7179 55.9801 2.91186 54.0799 2.9933 51.7014C3.25641 43.8958 3.4527 36.0901 3.66361 28.2824C3.68449 27.5244 3.82022 26.8436 4.43415 26.3216C5.69333 25.2482 7.18221 25.4821 7.98408 26.9271C8.78385 28.3638 8.88618 29.9592 8.88826 31.5504C8.89244 35.6641 8.953 39.78 8.79847 43.8895C8.67109 47.2682 9.94489 49.9599 12.2419 52.2757C14.9357 54.9924 17.6482 57.6925 20.3566 60.3967C21.0582 61.0962 21.787 61.1881 22.3425 60.666C22.9167 60.1252 22.8436 59.3442 22.1253 58.6238C19.442 55.9321 16.7545 53.2446 14.0607 50.5634C13.5428 50.0476 13.1419 49.488 13.2233 48.7174C13.3152 47.8654 13.7517 47.2536 14.5848 46.9884C15.4786 46.7065 16.2366 46.9884 16.8297 47.6712C18.4939 49.5819 20.3566 51.2838 22.2673 52.9356C23.3302 53.8544 24.391 54.7773 25.4769 55.669C26.7402 56.7068 27.3583 58.0704 27.5233 59.6554C27.8407 62.6958 27.5713 65.7445 27.6507 67.9162Z" fill="#03C16F"/>
<path d="M80.4923 51.7932C80.3482 47.8382 80.2647 43.8832 80.154 39.926C80.0433 35.9961 79.9243 32.0661 79.822 28.1382C79.7928 27.0419 79.5568 26.0312 78.8614 25.1521C76.4161 22.0511 72.1333 22.64 70.517 26.3048C69.7778 27.9837 69.5961 29.7691 69.5982 31.5712C69.6024 35.8937 69.64 40.2142 69.665 44.5368C69.6671 45.088 69.6567 45.6372 69.4959 46.2303C67.2887 43.9813 64.4091 43.7036 62.5944 45.7103C59.8735 48.7194 56.7725 51.29 53.7154 53.9232C52.2975 55.1448 51.4685 56.6963 51.1156 58.5172C50.9005 59.6198 50.8212 60.7349 50.8233 61.8562C50.8316 67.3231 50.8462 72.7921 50.8337 78.259C50.8316 79.0337 51.0342 79.6351 51.7463 80.0026C56.5387 80.0026 61.329 80.0026 66.1214 80.0026C66.8314 79.6309 67.036 79.0274 67.0276 78.2548C67.0026 75.703 67.0402 73.1512 67.0026 70.5995C66.9942 69.973 67.1696 69.5345 67.6123 69.0981C70.9242 65.8196 74.1943 62.4973 77.5124 59.2272C79.6006 57.1682 80.5988 54.7292 80.4923 51.7932ZM75.7041 57.5086C72.1834 60.9834 68.7107 64.504 65.1984 67.9892C64.7181 68.4653 64.4968 68.9623 64.5051 69.641C64.5323 72.009 64.4926 74.3791 64.5302 76.7471C64.5406 77.3798 64.3401 77.5197 63.7408 77.5156C60.5125 77.4884 57.2841 77.4863 54.0558 77.5177C53.4544 77.5239 53.3249 77.3381 53.327 76.7701C53.3437 71.6665 53.327 66.5651 53.327 61.4616C53.327 60.5741 53.4189 59.697 53.6089 58.8283C53.8741 57.6214 54.4421 56.6044 55.386 55.7879C57.5702 53.896 59.8297 52.0918 61.8865 50.0579C62.609 49.3459 63.2981 48.6004 63.9851 47.8507C64.9896 46.7544 66.2258 46.5686 67.1341 47.3997C68.0822 48.2684 67.9924 49.4941 66.8836 50.605C64.2545 53.2403 61.6192 55.8715 58.9881 58.5047C58.8043 58.6884 58.606 58.868 58.4702 59.0852C58.1466 59.6052 58.1674 60.1397 58.5872 60.595C59.032 61.0773 59.5853 61.1274 60.1471 60.8059C60.3684 60.6806 60.5501 60.4801 60.7318 60.2963C63.4025 57.6297 66.0963 54.9819 68.7295 52.2798C70.2476 50.722 71.5486 49.0013 71.9746 46.7816C72.1228 46.011 72.1667 45.2342 72.1625 44.4512C72.1374 40.233 72.1103 36.0169 72.0936 31.7988C72.0894 30.548 72.1646 29.2992 72.5279 28.0902C72.647 27.6955 72.8015 27.3008 72.9999 26.9396C73.5616 25.9122 74.3948 25.5008 75.3679 25.7284C76.5414 26.0041 77.2619 26.7955 77.3015 27.9544C77.3934 30.6085 77.4665 33.2626 77.5187 35.9167C77.5479 37.4244 77.525 38.9341 77.525 40.4439C77.5667 40.4439 77.6085 40.4439 77.6503 40.4439C77.7609 44.2423 77.8466 48.0428 77.9948 51.8413C78.0846 54.0986 77.3015 55.932 75.7041 57.5086Z" fill="#03C16F"/>
<path d="M63.6197 23.1413C63.6302 10.3846 53.231 -0.0125178 40.4742 1.13119e-05C27.7467 0.0125405 17.383 10.3762 17.3726 23.1058C17.3621 35.8605 27.7634 46.2618 40.516 46.2493C53.2414 46.2388 63.6093 35.8668 63.6197 23.1413ZM40.4638 43.7497C29.1019 43.733 19.8554 34.4572 19.8721 23.0933C19.8888 11.7273 29.1583 2.48496 40.5264 2.50166C51.8904 2.51628 61.139 11.7941 61.1202 23.156C61.1014 34.5199 51.8277 43.7664 40.4638 43.7497Z" fill="#03C16F"/>
<path d="M40.5431 4.7966C30.4446 4.74857 22.2255 12.9176 22.1691 23.0578C22.1127 33.1897 30.3339 41.4485 40.4846 41.4569C50.5998 41.4652 58.7981 33.2816 58.821 23.1539C58.844 13.0366 50.6854 4.84463 40.5431 4.7966ZM56.2379 25.0333C56.0103 26.5033 55.6616 27.9358 55.0811 29.312C54.9036 29.7338 54.7804 29.9614 54.2604 29.6502C53.4961 29.1929 52.805 29.3662 52.427 29.9906C52.0344 30.64 52.2349 31.3375 53.0618 31.8032C53.5588 32.083 53.4314 32.2793 53.1725 32.6196C52.2662 33.8078 51.2138 34.8415 50.0444 35.7707C49.6226 36.1069 49.3824 36.1362 49.1297 35.6058C48.8854 35.0942 48.4386 34.8164 47.858 34.8895C47.3214 34.9563 46.9601 35.2842 46.7972 35.8041C46.6699 36.2093 46.7868 36.5893 47.0228 36.913C47.3297 37.339 47.1689 37.5102 46.7409 37.6919C45.3167 38.2933 43.8341 38.6524 42.3118 38.8863C41.7396 38.974 41.7271 38.6921 41.7438 38.2786C41.7689 37.7086 41.5413 37.2701 41.0109 37.0111C40.5661 36.796 40.1463 36.8629 39.76 37.1427C39.3695 37.4267 39.2004 37.838 39.2568 38.3037C39.3236 38.8759 39.0626 38.9406 38.5823 38.8675C37.1122 38.6399 35.6797 38.287 34.3036 37.7086C33.8651 37.5248 33.6813 37.387 33.9799 36.8837C34.4289 36.1236 34.2514 35.4241 33.6249 35.0524C32.9734 34.6661 32.3031 34.8728 31.8124 35.6997C31.5722 36.1048 31.4094 36.1132 31.0565 35.8438C29.8474 34.9208 28.7929 33.8559 27.8469 32.6656C27.4961 32.225 27.5316 32.0036 28.0328 31.7531C28.5673 31.4837 28.8451 31.0117 28.7198 30.3978C28.6049 29.8319 28.229 29.4936 27.6569 29.3955C27.2706 29.3287 26.9365 29.4936 26.6337 29.6983C26.3163 29.9134 26.145 29.8507 25.9926 29.4999C25.3473 28.0089 24.9527 26.4532 24.7397 24.8453C24.6854 24.436 24.8629 24.3838 25.2137 24.3692C26.2244 24.3254 26.7631 23.8555 26.7422 23.0954C26.7214 22.3562 26.2056 21.9135 25.2283 21.8905C24.8044 21.8801 24.6896 21.7548 24.7459 21.3476C24.9631 19.794 25.3411 18.2884 25.9571 16.8413C26.1304 16.4341 26.287 16.3589 26.6942 16.5823C27.5253 17.0334 28.2249 16.8789 28.5882 16.2357C28.9578 15.5842 28.749 14.9285 27.9095 14.4315C27.4689 14.1705 27.5566 13.9909 27.803 13.6693C28.7365 12.4352 29.8202 11.3577 31.0523 10.4222C31.3885 10.1653 31.5618 10.1236 31.8124 10.5496C32.2989 11.3765 32.9692 11.5853 33.6228 11.2073C34.266 10.8356 34.3913 10.1674 33.9569 9.30709C33.817 9.02936 33.6771 8.82054 34.0864 8.64304C35.6024 7.98735 37.1769 7.56971 38.8412 7.37342C39.2735 7.26693 39.2714 7.56345 39.2547 7.8725C39.2234 8.43214 39.3842 8.90616 39.8916 9.20268C40.7331 9.6934 41.7417 9.1108 41.7292 8.06462C41.7208 7.37134 41.9714 7.31913 42.5436 7.40892C43.9886 7.63654 45.3898 8.00197 46.7409 8.56787C47.1627 8.74537 47.2942 8.89154 47.0353 9.34885C46.5738 10.1612 46.7513 10.8691 47.4174 11.2261C48.0606 11.5728 48.7205 11.3702 49.1715 10.583C49.4367 10.1194 49.6205 10.1653 49.9859 10.4472C51.1908 11.3744 52.2558 12.4331 53.1787 13.6401C53.4439 13.9846 53.5567 14.1809 53.0639 14.4566C52.262 14.9055 52.0574 15.5591 52.3998 16.1981C52.759 16.8684 53.469 17.0564 54.273 16.6053C54.7115 16.3589 54.8723 16.432 55.0602 16.8789C55.6491 18.28 56.0103 19.7355 56.2442 21.2327C56.3256 21.7464 56.192 21.8989 55.6595 21.8989C54.7115 21.8968 54.0975 22.5796 54.2876 23.3669C54.4588 24.0706 54.9516 24.4235 55.6658 24.3713C56.2129 24.3254 56.3152 24.5321 56.2379 25.0333Z" fill="#03C16F"/>
<path d="M47.9792 26.0061C46.8578 25.3463 45.7344 24.6927 44.5984 24.06C44.2476 23.8637 44.0701 23.6632 44.0805 23.2184C44.1139 21.765 43.4624 20.6583 42.1886 19.965C41.8295 19.7687 41.7313 19.5516 41.7376 19.1736C41.7585 18.0543 41.7459 16.935 41.7459 15.8158C41.7459 14.7487 41.7501 13.6816 41.7459 12.6146C41.7418 11.583 41.2636 10.9962 40.4596 11.0192C39.687 11.0422 39.2505 11.6081 39.2485 12.6104C39.2443 14.7717 39.238 16.933 39.2547 19.0921C39.2589 19.5223 39.1545 19.7708 38.741 20.0068C36.9452 21.03 36.3688 23.1829 37.3712 24.9245C38.386 26.689 40.5598 27.2528 42.3807 26.1836C42.7232 25.9832 42.9529 25.9727 43.2849 26.1732C44.4209 26.856 45.5736 27.5138 46.7304 28.1653C47.549 28.6247 48.2486 28.489 48.6307 27.825C49.0149 27.1609 48.779 26.476 47.9792 26.0061ZM40.4909 24.2228C39.8916 24.2207 39.4072 23.7425 39.3988 23.1412C39.3905 22.5105 39.9083 22.0052 40.5369 22.0302C41.1341 22.0532 41.6039 22.5502 41.5914 23.1495C41.5789 23.7467 41.0902 24.2249 40.4909 24.2228Z" fill="#03C16F"/>
</svg>
