<svg width="80" height="80" viewBox="0 0 80 80" fill="none" xmlns="http://www.w3.org/2000/svg">
<path d="M79.9717 65.0799C79.9153 60.7384 77.0627 56.8067 73.0105 55.3268C72.7012 55.2139 72.3417 55.216 72.0909 54.9505C77.2758 50.4419 76.8934 43.4249 73.1547 39.4075C69.3052 35.2709 62.9291 34.8173 58.5384 38.4334C56.3294 40.254 55.0295 42.6243 54.737 45.4629C54.3441 49.2671 55.715 52.4255 58.6512 55.007C56.1162 55.7574 54.1309 57.1014 52.6492 59.1603C51.1592 61.2275 50.6095 63.5832 50.6304 66.2629C49.2574 64.7747 47.759 63.8382 46.0328 63.2007C50.8102 58.7192 49.7966 52.5802 46.6138 49.4072C43.2199 46.0252 37.7341 45.7409 34.0392 48.8219C32.2482 50.3144 31.1406 52.2248 30.7937 54.5283C30.2775 57.9542 31.4437 60.8095 34.0037 63.1986C32.1981 63.8278 30.7289 64.8144 29.3392 66.2671C29.4019 63.5686 28.823 61.2401 27.3539 59.177C25.8701 57.093 23.8555 55.7469 21.379 55.007C26.7185 50.352 26.1815 43.2242 22.38 39.2946C18.4261 35.2061 12.0688 34.857 7.75329 38.54C5.66345 40.323 4.40746 42.5972 4.09608 45.3145C3.65303 49.1752 5.00515 52.3879 7.956 54.9777C7.77837 55.0592 7.69059 55.1094 7.59446 55.1407C3.66766 56.443 1.22046 59.1038 0.236152 63.1255C0.183906 63.3345 0.25287 63.6104 0 63.7505C0 68.5413 0 73.3342 0 78.1251C0.453494 78.9215 1.07836 79.5464 1.87458 80C27.2368 80 52.597 80 77.9592 80C79.1441 79.467 79.9905 78.6832 79.9905 77.266C79.9842 73.2046 80.026 69.1412 79.9717 65.0799ZM6.68329 46.6418C6.69374 42.2167 10.2715 38.655 14.6874 38.6696C19.1032 38.6842 22.6622 42.2669 22.6538 46.6857C22.6455 51.0857 19.0321 54.6872 14.6435 54.6683C10.236 54.6516 6.67284 51.0585 6.68329 46.6418ZM12.6414 77.3496C9.5192 77.3224 6.39698 77.3287 3.27477 77.3454C2.81083 77.3475 2.64573 77.2409 2.64991 76.7434C2.6729 72.866 2.62065 68.9886 2.67917 65.1133C2.73768 61.2986 5.63211 58.0399 9.33111 57.4546C9.74072 57.3898 9.98523 57.4254 10.2151 57.8225C11.1535 59.4425 12.1273 61.0415 13.1012 62.6384C13.2893 62.9478 13.3206 63.2634 13.3185 63.6062C13.3143 65.7655 13.3164 67.9268 13.3164 70.086C13.3164 72.2724 13.3018 74.4567 13.3269 76.6431C13.3352 77.174 13.2015 77.3538 12.6414 77.3496ZM13.0447 57.3731C14.1712 57.3731 15.1638 57.3731 16.2819 57.3731C15.7239 58.3012 15.2349 59.1164 14.6644 60.0654C14.1022 59.1331 13.6006 58.297 13.0447 57.3731ZM26.683 76.7601C26.6851 77.1907 26.5618 77.3475 26.1104 77.3454C22.9359 77.3287 19.7594 77.3266 16.5849 77.3475C16.0876 77.3517 15.9747 77.1698 15.9789 76.7142C15.9977 74.4755 15.9872 72.2369 15.9872 69.9982C15.9872 67.8891 15.9935 65.7822 15.981 63.6731C15.9789 63.2697 16.0562 62.9164 16.2694 62.5674C17.2181 61.0143 18.1586 59.455 19.076 57.8831C19.3059 57.4902 19.5316 57.3752 20.006 57.4525C23.7635 58.0608 26.566 61.2568 26.6538 65.2847C26.7373 69.1057 26.6684 72.935 26.683 76.7601ZM33.3203 56.004C33.3162 52.3461 36.2963 49.3612 39.9681 49.3487C43.6483 49.3382 46.6221 52.2708 46.666 55.9517C46.7078 59.6201 43.6755 62.6614 39.9827 62.6573C36.3276 62.6531 33.3266 59.6536 33.3203 56.004ZM41.6086 65.3788C41.0799 66.265 40.5742 67.1074 39.9974 68.0731C39.4289 67.1283 38.9315 66.2985 38.3777 65.3788C39.4791 65.3788 40.4717 65.3788 41.6086 65.3788ZM49.8906 77.3475C46.5866 77.3266 43.2826 77.3371 39.9785 77.3371C36.6745 77.3371 33.3705 77.3224 30.0665 77.3517C29.4834 77.3559 29.2974 77.2054 29.3308 76.6159C29.4249 74.9584 29.149 73.2778 29.5294 71.637C30.1981 68.7566 31.9661 66.8315 34.7205 65.7696C35.2472 65.5669 35.4917 65.7048 35.7613 66.171C36.71 67.8139 37.6964 69.4359 38.6828 71.0559C39.454 72.3246 40.5532 72.3142 41.3286 71.035C42.3129 69.4129 43.3056 67.7951 44.2439 66.1459C44.5281 65.6484 44.7956 65.6024 45.2972 65.7759C48.3525 66.8461 50.5322 69.7495 50.6283 72.9768C50.6639 74.1996 50.6054 75.4245 50.6618 76.6452C50.691 77.2869 50.4214 77.3517 49.8906 77.3475ZM57.3325 46.6355C57.343 42.2293 60.9647 38.632 65.3512 38.6696C69.7963 38.7072 73.3177 42.2606 73.303 46.694C73.2884 51.1128 69.696 54.6892 65.2948 54.6704C60.8999 54.6516 57.3221 51.0397 57.3325 46.6355ZM69.4285 57.8351C69.4034 59.1436 69.2906 60.4311 68.7911 61.6581C68.1892 63.1317 66.9249 63.9887 65.3387 63.9971C63.7295 64.0055 62.4401 63.1255 61.8445 61.6059C61.3722 60.4019 61.2343 59.1436 61.2238 57.8581C61.2196 57.4484 61.3513 57.3209 61.7588 57.3271C62.9563 57.3501 64.1517 57.3355 65.3491 57.3355C66.5194 57.3355 67.6918 57.3459 68.8621 57.3292C69.232 57.325 69.4369 57.394 69.4285 57.8351ZM77.3427 76.7539C77.3469 77.3621 77.0459 77.3433 76.6259 77.3412C72.8516 77.335 69.0774 77.3371 65.3032 77.3371C61.5812 77.3371 57.8592 77.3224 54.1372 77.3517C53.5144 77.3559 53.2908 77.2263 53.2971 76.5511C53.3305 72.8806 53.2845 69.2102 53.3221 65.5397C53.3556 62.2392 54.8247 59.7623 57.7526 58.1904C58.5133 57.7828 58.5488 57.8121 58.5593 58.6419C58.5843 60.5064 59.1172 62.2225 60.041 63.832C60.7933 65.1405 61.9051 66.0037 63.3492 66.3779C63.9072 66.5221 64.0639 66.773 64.0075 67.2934C63.9782 67.5756 63.9928 67.8682 64.0263 68.1504C64.1057 68.8214 64.624 69.3314 65.2718 69.3251C65.9364 69.3189 66.4066 68.9991 66.5947 68.3302C66.6093 68.28 66.6407 68.2257 66.6323 68.1797C66.3543 66.8085 67.1966 66.4218 68.2916 65.9682C70.325 65.1279 71.0795 63.2112 71.7001 61.2714C71.9718 60.4249 72.1014 59.5407 72.0847 58.6565C72.0721 57.9521 72.2623 57.8434 72.8705 58.1716C75.6165 59.6515 77.1985 61.9361 77.2905 65.0443C77.4075 68.9426 77.3114 72.8493 77.3427 76.7539Z" fill="#03C16F"/>
<path d="M2.54748 34.025C3.50044 33.168 4.537 32.4323 5.67387 31.8407C9.09075 30.0619 12.1503 30.3295 14.7229 32.635C15.7552 33.561 16.1962 33.5527 17.2745 32.6434C19.0405 31.1551 21.0237 30.1058 23.3476 29.8425C26.3193 29.5059 28.7122 30.7225 30.8083 32.7082C31.8177 33.6655 32.6244 33.5338 33.3057 32.3278C33.7905 31.4666 34.4593 30.7998 35.3265 30.319C35.8239 30.0431 36.0036 30.1267 35.9953 30.7266C35.9702 32.3926 35.9723 34.0585 35.9911 35.7265C36.0099 37.3402 35.8678 38.958 36.0642 40.5633C36.2962 42.4613 37.8072 43.8262 39.7549 43.9851C41.5354 44.1314 43.2512 42.9483 43.805 41.1883C43.9785 40.6344 44.0077 40.0659 44.0077 39.491C44.0056 36.6002 44.0182 33.7115 43.9994 30.8207C43.9952 30.2208 44.0892 29.9658 44.7183 30.3358C45.5228 30.8082 46.1686 31.4248 46.6305 32.2379C47.387 33.5715 48.1477 33.6822 49.2804 32.6225C50.4737 31.5042 51.7986 30.595 53.3869 30.1518C56.9375 29.1631 59.9322 30.3797 62.6449 32.587C63.834 33.5547 64.1997 33.584 65.3136 32.589C67.1986 30.9085 69.3699 30.3295 71.8318 30.9168C74.0679 31.4499 75.932 32.6559 77.6123 34.1797C78.1222 34.6417 78.6781 34.8549 79.3134 34.4807C79.932 34.117 80.0929 33.5401 79.9382 32.8629C79.8003 32.2546 79.6854 31.6401 79.5182 31.0381C76.6238 20.6161 70.7451 12.4997 61.0796 7.37232C55.3931 4.3561 49.2427 3.06223 42.8562 2.76124C41.4581 2.69644 41.4581 2.68599 41.3285 1.34823C41.2491 0.520497 40.7267 -0.00415569 39.9931 2.47994e-05C39.2575 0.00420529 38.7434 0.530948 38.6724 1.36287C38.6577 1.54472 38.6431 1.73075 38.6661 1.90842C38.7476 2.49787 38.5365 2.71734 37.9117 2.73407C34.9671 2.8135 32.0434 3.11449 29.1657 3.76038C13.9831 7.1633 4.53073 16.5422 0.367781 31.4269C0.267469 31.7885 0.321805 32.2065 0.00415039 32.495C0.00415039 32.9109 0.00415039 33.329 0.00415039 33.745C0.825455 34.903 1.48793 34.9782 2.54748 34.025ZM41.316 40.0136C41.2366 40.8037 40.7392 41.2991 40.0224 41.3137C39.2805 41.3305 38.7058 40.8121 38.6765 39.9927C38.6327 38.7699 38.6577 37.5471 38.6556 36.3222C38.6536 35.854 38.6556 35.3858 38.6556 34.9176C38.6556 33.2767 38.6682 31.638 38.6473 29.9971C38.641 29.5331 38.7852 29.3763 39.2617 29.3513C41.3327 29.2405 41.3306 29.2258 41.3306 31.268C41.3306 33.9498 41.3306 36.6295 41.3306 39.3113C41.3327 39.5454 41.339 39.7816 41.316 40.0136ZM66.7806 14.3893C71.4472 18.5969 74.5799 23.7787 76.5025 29.9679C76.0282 29.7212 75.7439 29.5645 75.4514 29.4223C72.1432 27.8212 68.8057 27.3697 65.439 29.2384C64.858 29.5603 64.9102 29.1171 64.8517 28.8224C64.1537 25.3589 62.998 22.0563 61.3659 18.9251C58.6094 13.6347 54.7286 9.38732 49.6001 6.28121C56.0661 7.42876 61.8758 9.96841 66.7806 14.3893ZM62.1328 28.8893C57.763 26.4395 53.5018 26.5503 49.2448 29.1652C48.969 25.1896 48.5322 21.3226 47.6754 17.5121C46.8185 13.6995 45.6315 10.0123 43.6503 6.6052C51.2553 7.74648 61.0712 19.5626 62.1328 28.8893ZM39.3975 6.78705C39.989 5.94886 39.9973 5.94678 40.5678 6.76197C42.5239 9.54827 43.6671 12.6899 44.5385 15.9465C45.6106 19.9535 46.1853 24.0379 46.48 28.2539C42.0997 26.0821 37.8385 26.0884 33.5251 28.2476C33.6672 25.4446 34.0308 22.7168 34.5324 20.0079C35.1635 16.5987 36.0517 13.2647 37.5041 10.1022C38.0371 8.94001 38.6598 7.83009 39.3975 6.78705ZM30.7268 29.1736C26.4824 26.5524 22.2421 26.4563 17.8263 28.8998C18.9506 23.8226 20.9422 19.27 24.1271 15.2693C27.3266 11.2497 31.3642 8.38818 36.3506 6.49651C32.4405 13.6284 31.3161 21.2725 30.7268 29.1736ZM11.6027 15.9423C16.7479 10.6164 23.101 7.60643 30.3423 6.29376C26.2086 8.84176 22.8168 12.1339 20.1961 16.2078C17.5943 20.2545 15.9433 24.6858 14.9904 29.4579C11.0824 27.1544 7.34574 27.8923 3.50044 29.9386C5.15559 24.5395 7.7846 19.8929 11.6027 15.9423Z" fill="#03C16F"/>
</svg>
